<svg id="eEB7MWLbOmd1" xmlns="http://www.w3.org/2000/svg" xmlns:xlink="http://www.w3.org/1999/xlink" viewBox="0 0 300 300" shape-rendering="geometricPrecision" text-rendering="geometricPrecision"><g><g><circle r="138.76" transform="translate(150 150)" fill="#fed784"/><path d="M202.47,130.15v0c-.06.84-.14,1.67-.25,2.51-.17,1.33-.4,2.65-.7,3.97-2.57,11.43-8.73,21.7-15.36,32.1-8.23,12.9-16.73,26.24-17.91,42.46-.33,4.62-.79,10.94-5.59,13.22-1.69.8-3.58.87-5.24.94l-1.74.07c-2.9.11-5.79.22-8.69.33h-.03-.03c-2.9-.11-5.8-.22-8.69-.33l-1.74-.07c-1.66-.06-3.55-.13-5.24-.94-4.8-2.28-5.25-8.6-5.59-13.22-1.17-16.22-9.68-29.56-17.91-42.46-6.63-10.4-12.79-20.67-15.36-32.1-.34-1.53-.6-3.08-.78-4.62-.09-.8-.16-1.61-.2-2.42v0c-.36-6.51.78-13.03,3.39-19.16c1.73-4.06,4.05-7.84,6.92-11.22c2.91-3.45,6.33-6.43,10.16-8.86c4.96-3.15,10.64-5.57,16.89-7.19c5.46-1.42,11.57-2.28,18.14-2.56h.03.03c6.57.28,12.68,1.14,18.14,2.56c6.25,1.62,11.93,4.04,16.89,7.19c3.83,2.43,7.25,5.41,10.16,8.86c2.86,3.39,5.19,7.16,6.92,11.22c2.71,6.31,3.84,13.02,3.38,19.72Z" fill="#fff"/><path d="M199.12,110.43c-1.73-4.06-4.05-7.84-6.92-11.22-2.91-3.45-6.33-6.43-10.16-8.86-4.96-3.15-10.64-5.57-16.89-7.19-5.46-1.42-11.57-2.28-18.14-2.56h-.03-.03c-6.57.28-12.68,1.14-18.14,2.56-6.25,1.62-11.93,4.04-16.89,7.19-3.83,2.43-7.25,5.41-10.16,8.86-2.86,3.39-5.19,7.16-6.92,11.22-2.61,6.13-3.75,12.65-3.39,19.16v0c.04.81.11,1.61.2,2.42.17,1.55.43,3.09.78,4.62c2.57,11.43,8.73,21.7,15.36,32.1c8.23,12.9,16.73,26.24,17.91,42.46.33,4.62.79,10.94,5.59,13.22c1.69.8,3.58.87,5.24.94l1.74.07c2.9.11,5.79.22,8.69.33h.03.03c2.9-.11,5.8-.22,8.69-.33l1.74-.07c1.66-.06,3.55-.13,5.24-.94c4.8-2.28,5.25-8.6,5.59-13.22c1.17-16.22,9.68-29.56,17.91-42.46c6.63-10.4,12.79-20.67,15.36-32.1.3-1.32.53-2.64.7-3.97.11-.84.19-1.67.25-2.51v0c.43-6.7-.7-13.41-3.38-19.72Zm1.8,18c-.02.75-.06,1.5-.12,2.24-.15,1.87-.43,3.75-.85,5.61-2.51,11.17-8.59,21.32-15.14,31.58-8.34,13.07-16.95,26.59-18.16,43.21-.31,4.22-.73,10-4.67,11.87-1.39.66-3.1.73-4.61.78l-1.74.07c-2.89.11-5.77.22-8.66.33-2.89-.11-5.77-.22-8.66-.33l-1.74-.07c-1.51-.06-3.21-.12-4.61-.78-3.95-1.88-4.36-7.66-4.67-11.87-1.2-16.63-9.82-30.14-18.16-43.21-6.55-10.27-12.64-20.41-15.14-31.58-.46-2.03-.75-4.08-.89-6.12-.05-.73-.08-1.46-.09-2.18-.22-14.35,7.13-28.24,19.76-36.27c9.13-5.8,20.32-8.91,34.2-9.5c6.94.3,13.21,1.22,18.88,2.8s10.75,3.8,15.32,6.7c12.77,8.11,20.13,22.21,19.75,36.72Z" fill="#144361"/><path d="M114.99,151.95c19.03,15.05,45.99,14.01,64.09-2.02.68-.6,1.48-1.33,2.13-1.97l.42-.4c-.18.24-.52.7-.7.94-.7.91-1.5,1.85-2.27,2.68-16.48,17.86-46.92,18.75-63.67.77v0Z" fill="#144361"/><path d="M146.03,124.82c-.23-5.68-2.56-10.98-6.6-15.02-4.27-4.27-9.94-6.62-15.98-6.62s-11.71,2.35-15.98,6.62c-3.84,3.84-6.13,8.82-6.55,14.17-.04.55-.07,1.11-.07,1.67c0,.04,0,.09,0,.13c0,6.04,2.35,11.71,6.62,15.98s9.94,6.62,15.98,6.62s11.71-2.35,15.98-6.62c4.11-4.11,6.44-9.53,6.61-15.32.01-.22.01-.44.01-.66c0-.31-.01-.63-.02-.95Zm-22.58,21.94c-11.57,0-20.98-9.41-20.98-20.98c0-.14,0-.28,0-.42.01-.55.04-1.1.1-1.63c1.03-10.61,10.01-18.93,20.88-18.93c11.25,0,20.46,8.9,20.96,20.02.01.32.02.64.02.96c0,.22,0,.44-.01.66-.35,11.26-9.62,20.32-20.97,20.32Z" fill="#144361"/><path d="M193.11,124.1c-.39-5.4-2.69-10.43-6.56-14.3-4.27-4.27-9.94-6.62-15.98-6.62s-11.71,2.35-15.98,6.62c-4.04,4.04-6.36,9.34-6.6,15.02-.01.32-.02.64-.02.96c0,.22,0,.44.01.66.16,5.79,2.5,11.21,6.61,15.32c4.27,4.27,9.94,6.62,15.98,6.62s11.71-2.35,15.98-6.62c4.26-4.26,6.61-9.93,6.62-15.96v-.01c0-.57-.02-1.13-.06-1.69Zm-1.55,1.68c0,11.57-9.41,20.98-20.98,20.98-11.35,0-20.62-9.06-20.97-20.32-.01-.22-.01-.44-.01-.66c0-.32.01-.64.02-.96.5-11.13,9.71-20.02,20.96-20.02c10.9,0,19.88,8.35,20.89,18.99.05.54.08,1.09.09,1.65c0,.11,0,.23,0,.34Z" fill="#144361"/><circle r="12.31" transform="translate(125.35 129.77)" fill="#8ad3f3"/><circle r="5.29" transform="translate(125.35 129.77)" fill="#144361"/><path d="M158.39,128.43c6.95-6.38,14.68-8.14,23.61-5.03-6.03-1.48-12.35-.98-17.45,2.76-1.63,1.15-3.1,2.51-4.45,3.99-.45.49-1.22.53-1.71.08-.54-.48-.53-1.33,0-1.8v0Z" fill="#144361"/><path d="M102.57,123.73c-.05.54-.08,1.08-.1,1.63-.54.06-1.08.16-1.62.29-2.94.69-5.69,2.31-7.75,4.52-.54.58-1.03,1.19-1.46,1.85-.09-.8-.16-1.61-.2-2.42v0c.48-.57,1.01-1.11,1.57-1.61.75-.67,1.57-1.29,2.45-1.83c1.71-1.05,3.56-1.79,5.47-2.18.54-.12,1.09-.2,1.64-.25Z" fill="#144361"/><path d="M202.47,130.15v0c-.06.84-.14,1.67-.25,2.51-.41-.7-.89-1.37-1.42-1.99-1.97-2.32-4.69-4.06-7.63-4.88-.53-.15-1.07-.27-1.62-.35-.01-.55-.04-1.1-.09-1.65.55.07,1.1.18,1.65.31c1.7.41,3.35,1.1,4.89,2.05c1.07.66,2.04,1.42,2.92,2.27.56.55,1.08,1.12,1.55,1.73Z" fill="#144361"/><path d="M149.6,125.78c0,.22,0,.44.01.66h-5.19c.01-.22.01-.44.01-.66c0-.32-.01-.64-.02-.96h5.21c-.02.32-.02.64-.02.96Z" fill="#4d4d4d"/><path d="M167.11,229.6v12.28c0,.85-.07,1.68-.19,2.49-.04.27-.09.54-.15.81-.38,1.8-1.07,3.49-2,5-.17.28-.35.54-.53.81-2.87,4.08-7.61,6.74-12.97,6.74h-8.5c-5.36,0-10.1-2.66-12.97-6.74-.19-.26-.36-.53-.53-.81-.94-1.52-1.62-3.2-2-5-.06-.27-.11-.54-.15-.81-.13-.81-.19-1.64-.19-2.49v-12.28c0-2.56,2.08-4.64,4.64-4.64h30.91c2.55,0,4.63,2.08,4.63,4.64Z" fill="#144361"/><rect width="40.19" height="0.81" rx="0" ry="0" transform="translate(126.92 232.02)" fill="#fff"/><rect width="40.19" height="0.81" rx="0" ry="0" transform="translate(126.92 238.56)" fill="#fff"/><path d="M166.91,244.37c-.04.27-.09.54-.15.81h-39.5c-.06-.27-.11-.54-.15-.81h39.8Z" fill="#fff"/><path d="M164.76,250.18c-.17.28-.35.54-.53.81h-34.43c-.19-.26-.36-.53-.53-.81h35.49Z" fill="#fff"/><path d="M162.87,85.11h-35.34c-5.77,0-10.45-4.68-10.45-10.45v-5.27c0-.72.58-1.3,1.3-1.3h53.64c.72,0,1.3.58,1.3,1.3v5.27c0,5.77-4.68,10.45-10.45,10.45Z" fill="#144361"/><polygon points="145.71,80.43 99.56,63.07 144.81,46.76 188.24,61.4 193.12,63.05" fill="#fff"/><path d="M145.71,80.86L98.4,63.06l46.41-16.73l49.53,16.7-48.63,17.83ZM100.73,63.08L145.72,80l46.19-16.94-47.09-15.87-44.09,15.89Z" fill="#144361"/><polygon points="194.47,59.49 194.47,63.04 182.72,63.04 182.72,58.36 191.23,58.36" fill="#fff"/><polygon points="109.21,58.52 109.21,63.2 98.35,63.2 98.35,59.29 100.48,58.52" fill="#fff"/><polygon points="194.47,59.49 188.78,61.58 184.84,63.04 145.27,77.63 108.3,63.2 103.78,61.43 98.35,59.31 98.32,59.3 98.35,59.29 100.48,58.52 145.27,42.28 191.23,58.36" fill="#144361"/><path d="M186.88,95.81c-.18,0-.36-.06-.51-.19-.77-.63-1.58-1.26-2.36-1.87-2.31-1.79-4.69-3.64-6.53-6.02-2.1-2.72-2.69-5.87-3.26-8.92-.32-1.73-.66-3.52-1.27-5.18l-.08-.21c-.24-.67-.65-1.78-1.16-2.78-.76-1.5-1.25-1.76-1.38-1.8-.06-.02-24.19-8.13-24.19-8.13-.42-.14-.65-.6-.51-1.02s.6-.65,1.02-.51c0,0,24.13,8.11,24.19,8.13c1.51.51,2.6,2.97,3.54,5.56l.08.21c.66,1.79,1.01,3.64,1.34,5.44.56,2.99,1.09,5.81,2.95,8.23c1.71,2.22,4.02,4,6.24,5.73.79.62,1.61,1.25,2.4,1.9.34.28.39.79.11,1.14-.16.19-.39.29-.62.29Z" fill="#8ad3f3"/><path d="M198.91,112.8c.64.42,1.34.81,2.1.83.96.03,2.34-1.96,2.96-2.56.93-.89,1.9-1.76,2.88-2.6.37-.31,1.91-1.31,1.75-1.93s-1.74-.69-2.23-.72c-2.33-.13-4.37-1.44-6.42-2.55-3.12-1.7-5.18-3.59-8.41-6.83-1.79-1.8-1.69-1.3-3.65.52-1.26,1.17-.21,1.76.45,3.44c1.87,4.74,6.38,9.67,10.57,12.4Z" fill="#144361"/><path d="M191.32,98.31l-1.57,1.35c-.97.83-2.42.72-3.25-.24l-1.35-1.57c-.83-.97-.72-2.42.24-3.25l1.57-1.35c.97-.83,2.42-.72,3.25.24l1.35,1.57c.83.96.72,2.42-.24,3.25Z" fill="#144361"/></g></g></svg>
