<svg id="ernMzdgEkYa1" xmlns="http://www.w3.org/2000/svg" xmlns:xlink="http://www.w3.org/1999/xlink" viewBox="0 0 500 150" shape-rendering="geometricPrecision" text-rendering="geometricPrecision"><g><g><path d="M51.71,19.26h-30.24c-3.65,0-6.61-2.96-6.61-6.61v-2.47c0-3.65,2.96-6.61,6.61-6.61h92.54c3.65,0,6.61,2.96,6.61,6.61v2.47c0,3.65-2.96,6.61-6.61,6.61h-30.43c-3.65,0-6.61,2.96-6.61,6.61v113.95c0,3.65-2.96,6.61-6.61,6.61h-5.42c-3.65,0-6.61-2.96-6.61-6.61v-113.95c-.01-3.65-2.97-6.61-6.62-6.61Z" fill="#8ad3f3"/><path d="M85.84,69.28c0-1.87,1.38-3.45,3.23-3.7c4.52-.61,10.06-1.07,16.75-1.07c10.29,0,17.83,2.39,22.61,6.7c4.43,3.83,7.06,9.69,7.06,16.87c0,7.3-2.15,13.04-6.22,17.23-5.5,5.86-14.48,8.85-24.65,8.85-1.52,0-2.99-.03-4.37-.13-2.16-.16-4,1.55-4,3.72v24.27c0,2.06-1.67,3.73-3.73,3.73h-2.95c-2.06,0-3.73-1.67-3.73-3.73v-72.74Zm10.41,32.55c0,1.87,1.38,3.49,3.24,3.7c1.59.18,3.38.26,5.37.26c12.56,0,20.22-6.1,20.22-17.23c0-10.65-7.54-15.79-19.02-15.79-2.52,0-4.7.11-6.45.29-1.91.19-3.36,1.8-3.36,3.71v25.06Z" fill="#8ad3f3"/><path d="M147.94,64.81c2.06,0,3.73,1.67,3.73,3.73v30.25c0,12.8-.24,23.33-.96,34.1l.24.12c4.07-8.37,9.09-17.11,14.96-26.68l24.98-39.77c.68-1.09,1.88-1.75,3.16-1.75h4.61c2.06,0,3.73,1.67,3.73,3.73v73.17c0,2.06-1.67,3.73-3.73,3.73h-2.35c-2.06,0-3.73-1.67-3.73-3.73v-30.6c0-13.04.12-22.62.96-32.79l-.36-.12c-3.95,8.85-9.45,18.18-14.95,27.16l-24.15,38.33c-.68,1.08-1.88,1.74-3.16,1.74h-5.33c-2.06,0-3.73-1.67-3.73-3.73v-73.16c0-2.06,1.67-3.73,3.73-3.73h2.35Z" fill="#8ad3f3"/><path d="M218.19,64.15c1.45,0,2.77.84,3.38,2.15l15.02,32.18c2.04,4.79,3.95,9.45,5.86,14.24h.24c1.44-4.18,2.99-8.85,5.02-14.59l11.67-31.54c.54-1.46,1.94-2.44,3.5-2.44h2.85c2.65,0,4.46,2.69,3.46,5.14l-14.77,36.25c-4.43,10.77-9.45,23.09-15.08,30.63-5.27,6.58-11.13,9.93-18.3,9.93-.71,0-1.36-.02-1.97-.05-2.14-.12-3.71-2.06-3.45-4.19l.17-1.35c.24-1.88,1.84-3.29,3.73-3.26.18,0,.36,0,.55,0c8.37-.12,13.28-8.14,15.79-13.88.84-1.79.6-2.99-.36-4.9L211.36,69.54c-1.22-2.48.58-5.38,3.35-5.38h3.48Z" fill="#fed784"/><path d="M342.22,110.03c-.6-11.24-1.32-24.76-1.19-34.81h-.36c-2.75,9.45-6.1,19.5-10.17,30.63l-13.34,36.67c-.54,1.47-1.94,2.46-3.51,2.46h-2.61c-1.6,0-3.02-1.02-3.53-2.53l-12.18-35.87c-3.83-11.36-7.06-21.77-9.33-31.34h-.24c-.24,10.05-.84,23.57-1.56,35.65l-1.94,31.08c-.12,1.97-1.75,3.5-3.72,3.5h-2.42c-2.16,0-3.87-1.83-3.72-3.99l5.1-73.17c.14-1.96,1.76-3.47,3.72-3.47h7.16c1.58,0,2.99,1,3.52,2.49l12.88,36.51c3.35,9.93,6.1,18.79,8.13,27.16h.36c2.04-8.13,4.9-16.99,8.49-27.16l13.46-36.56c.54-1.47,1.94-2.44,3.5-2.44h7.17c1.97,0,3.6,1.53,3.72,3.5l4.56,73.17c.13,2.15-1.57,3.96-3.72,3.96h-2.68c-1.98,0-3.61-1.54-3.73-3.52l-1.82-31.92Z" fill="#fed784"/><path d="M429.74,9.66v0c0,3.05,2.25,5.68,5.28,6.03c25.83,2.99,50.12,20.16,50.12,58.88c0,38.76-24.33,55.07-50.35,58.25-3.01.37-5.24,2.99-5.24,6.03v.64c0,3.36-2.72,6.08-6.08,6.08h-4.21c-3.36,0-6.08-2.72-6.08-6.08v-.68c0-3.09-2.32-5.65-5.39-6.04-25.64-3.27-50.01-18.58-50.01-57.42c0-40.11,26.34-56.24,50.43-59.55c3.05-.42,5.36-2.96,5.36-6.04v-.1c0-3.36,2.72-6.08,6.08-6.08h4.02c3.35-.01,6.07,2.72,6.07,6.08ZM413.36,34.6c0-3.89-3.61-6.86-7.39-5.95-15.23,3.67-30.65,16.58-30.65,45.91c0,27.24,14.09,40.83,30.43,45.23c3.84,1.03,7.61-1.92,7.61-5.9v-79.29Zm16.18,79.43c0,3.93,3.69,6.88,7.51,5.93c16.16-4.05,30.53-17.33,30.53-45.58c0-29.36-14.47-42.33-30.7-45.85-3.78-.82-7.34,2.1-7.34,5.97v79.53Z" fill="#8ad3f3"/></g></g></svg>
